<?xml version="1.0" standalone="no"?>
<!DOCTYPE svg PUBLIC "-//W3C//DTD SVG 20010904//EN"
 "http://www.w3.org/TR/2001/REC-SVG-20010904/DTD/svg10.dtd">
<svg version="1.0" xmlns="http://www.w3.org/2000/svg"
 width="519.000000pt" height="519.000000pt" viewBox="0 0 519.000000 519.000000"
 preserveAspectRatio="xMidYMid meet">
<metadata>
Created by potrace 1.11, written by Peter Selinger 2001-2013
</metadata>
<g transform="translate(0.000000,519.000000) scale(0.100000,-0.100000)"
fill="#000000" stroke="none">
<path d="M1700 5182 c-68 -7 -112 -26 -145 -63 -34 -38 -38 -51 -38 -115 1
-75 90 -194 203 -271 131 -89 363 -187 540 -228 63 -15 122 -30 130 -34 26
-14 42 -135 43 -341 1 -186 0 -198 -25 -267 -83 -231 -240 -382 -459 -443
-256 -70 -549 24 -695 222 -149 202 -195 447 -114 608 53 105 143 181 260 220
261 88 541 -100 557 -375 7 -108 -36 -176 -131 -209 -44 -15 -134 -4 -172 21
-31 20 -64 83 -64 122 0 16 -4 41 -10 55 -20 54 -98 65 -139 19 -21 -24 -23
-34 -18 -93 18 -213 201 -340 425 -294 79 16 138 50 191 110 62 71 83 123 89
223 17 324 -256 612 -583 614 -343 1 -615 -262 -615 -595 0 -148 35 -268 133
-451 85 -161 300 -317 504 -367 195 -48 432 -20 601 72 29 15 54 28 56 28 2 0
4 -34 5 -75 4 -200 87 -404 222 -545 l53 -55 1 -628 c0 -346 -2 -632 -5 -637
-3 -5 -66 -8 -140 -7 l-135 2 0 240 0 240 -285 1 c-157 1 -296 -3 -309 -8 -55
-20 -69 -91 -26 -133 13 -14 30 -25 37 -26 7 0 103 -1 213 -2 l200 -2 1 -145
c0 -80 -2 -150 -4 -157 -2 -7 -28 -12 -70 -11 -143 0 -152 -1 -177 -27 -32
-31 -32 -75 -1 -112 23 -26 27 -28 130 -29 58 -2 109 -5 113 -7 10 -6 11 -403
1 -412 -3 -4 -99 -7 -213 -8 l-207 -2 -24 -28 c-30 -35 -31 -78 -1 -112 l22
-26 275 0 c151 -1 286 -1 300 0 l25 1 0 295 c0 162 2 295 5 296 8 1 211 1 245
0 l30 -1 0 -572 c-1 -315 2 -584 5 -597 3 -14 18 -34 33 -45 22 -16 33 -18 64
-10 70 17 68 -1 68 647 0 571 0 577 20 578 23 1 223 1 243 0 9 -1 12 -67 12
-296 0 -274 1 -295 18 -295 297 -6 572 0 590 11 56 35 47 123 -15 147 -18 7
-101 10 -226 9 l-197 -2 0 215 0 215 115 0 c103 0 117 2 136 21 31 32 33 87 4
118 -26 28 -25 28 -163 26 l-93 -1 3 158 3 158 198 2 c109 0 208 4 221 7 23 6
45 36 50 71 5 28 -21 74 -47 84 -12 5 -151 9 -309 9 l-288 0 0 -244 0 -244
-137 3 -138 2 0 634 0 635 53 55 c137 144 220 348 223 547 1 41 2 74 4 74 1 0
23 -11 48 -25 146 -82 348 -116 537 -90 205 27 431 165 542 331 181 271 216
560 95 788 -42 79 -146 184 -227 228 -104 58 -189 80 -302 80 -172 -1 -298
-52 -420 -173 -80 -79 -115 -137 -154 -251 -26 -78 -31 -226 -9 -289 83 -234
380 -319 578 -166 68 53 117 159 117 253 0 76 -68 120 -128 83 -30 -18 -32
-23 -46 -109 -11 -71 -55 -114 -132 -127 -132 -24 -238 64 -235 194 2 100 59
229 133 300 245 234 663 94 721 -243 31 -182 -80 -457 -236 -584 -50 -41 -172
-112 -197 -116 -3 0 -25 -6 -50 -13 -72 -21 -80 -22 -180 -23 -335 -3 -605
231 -665 575 -18 104 -1 376 31 488 3 10 27 19 77 27 174 30 491 160 617 255
78 58 145 130 170 183 68 140 -19 257 -188 255 -185 -2 -365 -69 -558 -207
-101 -71 -184 -179 -228 -295 l-17 -46 -57 -1 -57 -1 -34 75 c-76 166 -183
269 -386 372 -137 69 -319 115 -415 104z m209 -204 c121 -39 262 -120 335
-191 34 -34 90 -116 83 -123 -5 -5 -116 28 -212 63 -87 32 -233 104 -294 145
-46 32 -131 115 -131 129 0 23 121 10 219 -23z m1581 28 c0 -1 -11 -17 -24
-35 -41 -56 -136 -122 -261 -181 -158 -76 -355 -142 -355 -120 0 12 85 123
111 144 45 37 181 115 254 145 76 32 213 61 252 53 13 -2 23 -5 23 -6z m-890
-553 c0 -5 -5 -15 -10 -23 -8 -12 -10 -11 -10 8 0 12 5 22 10 22 6 0 10 -3 10
-7z m32 -755 c21 -24 56 -79 78 -124 118 -236 82 -513 -91 -711 l-28 -32 -41
47 c-66 74 -127 207 -145 317 -19 115 5 267 60 379 32 65 107 166 123 166 4 0
24 -19 44 -42z"/>
</g>
</svg>
