<svg xmlns="http://www.w3.org/2000/svg" viewBox="0 0 566.93 32.47"><defs><style>.cls-1{fill:#fff;}</style></defs><title>Asset 1</title><g id="Layer_2" data-name="Layer 2"><g id="white_logo" data-name="white logo"><path class="cls-1" d="M0,32,13.53.45h4.28L31.35,32H25l-3-7H9.33l-3,7Zm11.64-12.4h8l-4-9.34Z"/><path class="cls-1" d="M108.29,5.86V12.4H118v5.42h-9.69V32H102.2V.45h18.94V5.86Z"/><path class="cls-1" d="M153.63.45h6.09V32h-6.09Z"/><path class="cls-1" d="M194.92.45h4.29L216.79,21V.45h6.09V32H218.6L201,11.46V32h-6.09Z"/><path class="cls-1" d="M264.18,5.86V12.4h9.69v5.42h-9.69v8.79h13.3V32H258.09V.45H277V5.86Z"/><path class="cls-1" d="M372.91,17.82H357.13V32H351V.45h6.09v12h15.78V.45H379V32h-6.09Z"/><path class="cls-1" d="M428.41,0c9.74,0,16.46,7.26,16.46,16.24s-6.72,16.23-16.46,16.23S412,25.21,412,16.24,418.67,0,428.41,0Zm0,27.06c6,0,10.38-4.87,10.38-10.82S434.37,5.41,428.41,5.41,418,10.28,418,16.24,422.46,27.06,428.41,27.06Z"/><path class="cls-1" d="M481.89,29.23c-2.62-2.35-4.06-5.69-4.06-10.51V.45h6.09V19.17c0,2.88.77,4.64,2.07,5.86a8.12,8.12,0,0,0,10.74,0c1.3-1.22,2.07-3,2.07-5.86V.45h6.09V18.72c0,4.82-1.45,8.16-4.06,10.51a15.46,15.46,0,0,1-18.94,0Z"/><path class="cls-1" d="M546,18V32h-6.09V.45h11.5a9.51,9.51,0,0,1,6.9,2.35,8.82,8.82,0,0,1,0,12.89,8,8,0,0,1-3.16,1.85L566.93,32H559.4L548.17,18Zm5-5.41c1.76,0,2.53-.36,3.07-1a3.69,3.69,0,0,0,0-4.83c-.54-.58-1.31-1-3.07-1h-5v6.77Z"/></g></g></svg>