<svg xmlns="http://www.w3.org/2000/svg" viewBox="0 0 166.15 259.09"><defs><style>.cls-1,.cls-2{fill:none;stroke:#f2f1f9;stroke-miterlimit:10;stroke-width:8.47px;}.cls-2{stroke-linecap:round;}</style></defs><title>Asset 2</title><g id="Layer_2" data-name="Layer 2"><g id="key"><path class="cls-1" d="M83.08,66.19A35.06,35.06,0,0,0,69.23,94.72a36.66,36.66,0,0,0,13.85,28.53s14-10,13.84-28.53A36.53,36.53,0,0,0,83.08,66.19Z"/><line class="cls-2" x1="83.06" y1="122.16" x2="83.06" y2="254.85"/><path class="cls-2" d="M28.8,56.71s-.75,12.88,13.57,12.88a13.73,13.73,0,0,0,12.69-8.75s3.3-7.83-3-18.41a25.51,25.51,0,0,0-22-12.28A26.48,26.48,0,0,0,9.77,40,24.76,24.76,0,0,0,4.24,56S4,69,14.11,81.29a37.3,37.3,0,0,0,28,12.34S63.65,94.72,74.61,75a38.52,38.52,0,0,0,5.27-19.2S81.33,27.3,67.67,15.62c0,0-12.64-10.78-26.59-11.31,0,0-5.48-.75-7.28,2.52,0,0-2.51,5,9.6,13,0,0,18.55,12,39.65,12"/><path class="cls-2" d="M137.36,56.71s.74,12.88-13.58,12.88a13.73,13.73,0,0,1-12.69-8.75s-3.3-7.83,3-18.41a25.51,25.51,0,0,1,22-12.28A26.48,26.48,0,0,1,156.38,40a24.76,24.76,0,0,1,5.53,16S162.2,69,152,81.29a37.29,37.29,0,0,1-27.95,12.34S102.5,94.72,91.54,75a38.52,38.52,0,0,1-5.27-19.2S84.82,27.3,98.48,15.62c0,0,12.64-10.78,26.6-11.31,0,0,5.48-.75,7.27,2.52,0,0,2.52,5-9.6,13,0,0-18.55,12-39.65,12"/><polyline class="cls-2" points="36.8 168.99 60.6 168.99 60.6 223.06 36.8 223.06"/><line class="cls-2" x1="46.9" y1="193.21" x2="119.25" y2="193.21"/><polyline class="cls-2" points="129.14 168.99 105.33 168.99 105.33 223.06 129.14 223.06"/></g></g></svg>