<?xml version="1.0" standalone="no"?>
<!DOCTYPE svg PUBLIC "-//W3C//DTD SVG 20010904//EN"
 "http://www.w3.org/TR/2001/REC-SVG-20010904/DTD/svg10.dtd">
<svg version="1.0" xmlns="http://www.w3.org/2000/svg"
 width="100.000000pt" height="100.000000pt" viewBox="0 0 100.000000 100.000000"
 preserveAspectRatio="xMidYMid meet">
<metadata>
Created by potrace 1.11, written by Peter Selinger 2001-2013
</metadata>
<g transform="translate(0.000000,100.000000) scale(0.100000,-0.100000)"
fill="#000000" stroke="none">
<path d="M33 500 l0 -191 120 2 c67 1 133 6 149 11 66 23 90 107 43 153 -13
14 -30 25 -37 25 -7 1 -3 9 9 19 33 28 43 60 29 101 -17 54 -54 68 -195 69
l-118 2 0 -191z m215 73 c4 -25 -38 -42 -83 -34 -23 5 -30 11 -30 31 0 17 7
26 25 30 41 10 85 -3 88 -27z m7 -123 c15 -12 9 -49 -9 -51 -41 -6 -106 -4
-107 3 -4 23 -5 54 -2 59 4 10 104 1 118 -11z"/>
<path d="M392 678 c3 -7 31 -93 62 -190 l58 -178 48 0 49 0 32 100 c19 55 36
100 40 100 4 0 21 -45 40 -99 l33 -99 44 -4 c24 -2 47 1 50 7 8 13 122 356
122 367 0 5 -24 8 -52 6 l-53 -3 -32 -105 c-35 -118 -28 -120 -78 28 l-28 83
-45 -3 -45 -3 -33 -95 c-19 -52 -35 -99 -37 -105 -4 -10 -8 1 -47 133 l-22 72
-55 0 c-40 0 -54 -3 -51 -12z"/>
</g>
</svg>
